<svg xmlns="http://www.w3.org/2000/svg" viewBox="0 0 1200 900" role="img" aria-label="Drago window placeholder">
  <defs>
    <linearGradient id="g8" x1="0" x2="0" y1="0" y2="1">
      <stop offset="0" stop-color="#FFB347"/>
      <stop offset="0.6" stop-color="#FFD4B3"/>
      <stop offset="1" stop-color="#FFF5EC"/>
    </linearGradient>
  </defs>
  <rect width="1200" height="900" fill="url(#g8)"/>
  <!-- window frame -->
  <rect x="120" y="100" width="960" height="700" rx="30" fill="#FFF5EC" stroke="#2A1810" stroke-width="8"/>
  <line x1="600" y1="100" x2="600" y2="800" stroke="#2A1810" stroke-width="6"/>
  <line x1="120" y1="450" x2="1080" y2="450" stroke="#2A1810" stroke-width="6"/>
  <!-- sky inside window -->
  <rect x="128" y="108" width="464" height="334" fill="#FFB89A" opacity="0.5"/>
  <rect x="608" y="108" width="464" height="334" fill="#FFB89A" opacity="0.5"/>
  <circle cx="350" cy="240" r="50" fill="#FF8A6B"/>
  <circle cx="850" cy="220" r="60" fill="#FFFFFF" opacity="0.7"/>
  <circle cx="900" cy="240" r="45" fill="#FFFFFF" opacity="0.7"/>
  <!-- dog looking through window bottom -->
  <ellipse cx="600" cy="780" rx="220" ry="160" fill="#2A1810"/>
  <path d="M440 580 L400 400 L540 520 Z" fill="#2A1810"/>
  <path d="M760 580 L800 400 L660 520 Z" fill="#2A1810"/>
  <ellipse cx="540" cy="650" rx="24" ry="30" fill="#FFF5EC"/>
  <ellipse cx="660" cy="650" rx="24" ry="30" fill="#FFF5EC"/>
  <circle cx="543" cy="658" r="14" fill="#1A0E08"/>
  <circle cx="663" cy="658" r="14" fill="#1A0E08"/>
  <ellipse cx="600" cy="720" rx="80" ry="70" fill="#3D2519"/>
  <ellipse cx="600" cy="710" rx="20" ry="14" fill="#1A0E08"/>
  <!-- paw on sill -->
  <ellipse cx="900" cy="800" rx="50" ry="30" fill="#2A1810"/>
  <ellipse cx="320" cy="800" rx="50" ry="30" fill="#2A1810"/>
  <text x="600" y="850" text-anchor="middle" font-family="'Fraunces', Georgia, serif" font-size="34" font-weight="700" font-style="italic" fill="#2A1810" opacity="0.6">waiting</text>
</svg>
