<svg xmlns="http://www.w3.org/2000/svg" viewBox="0 0 240 240" role="img" aria-label="QR placeholder">
  <rect width="240" height="240" fill="#ffffff"/>
  <rect x="24" y="24" width="56" height="56" fill="#0f172a"/>
  <rect x="36" y="36" width="32" height="32" fill="#ffffff"/>
  <rect x="160" y="24" width="56" height="56" fill="#0f172a"/>
  <rect x="172" y="36" width="32" height="32" fill="#ffffff"/>
  <rect x="24" y="160" width="56" height="56" fill="#0f172a"/>
  <rect x="36" y="172" width="32" height="32" fill="#ffffff"/>
  <g fill="#0f172a">
    <rect x="104" y="32" width="16" height="16"/>
    <rect x="128" y="32" width="16" height="16"/>
    <rect x="104" y="64" width="32" height="16"/>
    <rect x="96" y="104" width="16" height="16"/>
    <rect x="128" y="96" width="16" height="48"/>
    <rect x="160" y="104" width="48" height="16"/>
    <rect x="96" y="152" width="32" height="16"/>
    <rect x="144" y="160" width="16" height="32"/>
    <rect x="176" y="144" width="16" height="16"/>
    <rect x="200" y="176" width="16" height="40"/>
    <rect x="104" y="200" width="56" height="16"/>
  </g>
  <text x="120" y="128" text-anchor="middle" font-family="Arial, sans-serif" font-size="16" font-weight="700" fill="#047857">QR soon</text>
</svg>
